<svg xmlns="http://www.w3.org/2000/svg" xmlns:xlink="http://www.w3.org/1999/xlink" xmlns:lucid="lucid" width="1360" height="1031"><g transform="translate(0 -54)" lucid:page-tab-id=".Q4MUjXso07N"><path d="M140 265c0-2.76 2.24-5 5-5h1050c2.76 0 5 2.24 5 5v730c0 2.76-2.24 5-5 5H145c-2.76 0-5-2.24-5-5z" stroke="#333" fill-opacity="0"/><use xlink:href="#a" transform="matrix(1,0,0,1,148,268) translate(364.8703703703704 15.11111111111111)"/><use xlink:href="#b" transform="matrix(1,0,0,1,148,268) translate(435.24074074074076 15.11111111111111)"/><use xlink:href="#c" transform="matrix(1,0,0,1,148,268) translate(488.2037037037037 15.11111111111111)"/><use xlink:href="#d" transform="matrix(1,0,0,1,148,268) translate(501.72222222222223 15.11111111111111)"/><use xlink:href="#e" transform="matrix(1,0,0,1,148,268) translate(541.1666666666667 15.11111111111111)"/><use xlink:href="#f" transform="matrix(1,0,0,1,148,268) translate(595.4259259259259 15.11111111111111)"/><path d="M99.75 559.75c0 10.9-8.84 19.75-19.75 19.75-10.9 0-19.75-8.84-19.75-19.75C60.25 548.85 69.1 540 80 540c10.9 0 19.75 8.84 19.75 19.75z" stroke="#0c7cba" stroke-width="4" fill="#fff"/><path d="M80 579.5v50.3c0 2.76 1.2 6.9 2.67 9.22L120 698m-40-63.2L40 698m0-98.75h80" stroke="#0c7cba" stroke-width="4" fill="none"/><path d="M40 545c0-2.76 2.24-5 5-5h70c2.76 0 5 2.24 5 5v170c0 2.76-2.24 5-5 5H45c-2.76 0-5-2.24-5-5z" fill="none"/><use xlink:href="#g" transform="matrix(1,0,0,1,-40,698) translate(75.1358024691358 14.888888888888888)"/><path d="M253.15 78c0-4.42 3.58-8 8-8h836.75c4.4 0 8 3.58 8 8v25.16c0 4.4-3.6 8-8 8H261.15c-4.42 0-8-3.6-8-8z" stroke="#000" stroke-opacity="0" stroke-width="2" fill="#fff" fill-opacity="0"/><use xlink:href="#h" transform="matrix(1,0,0,1,273.14655278534315,69.99999999994924) translate(212.77913580246914 27.584444444444443)"/><use xlink:href="#i" transform="matrix(1,0,0,1,273.14655278534315,69.99999999994924) translate(339.3741975308642 27.584444444444443)"/><use xlink:href="#j" transform="matrix(1,0,0,1,273.14655278534315,69.99999999994924) translate(377.1779012345679 27.584444444444443)"/><use xlink:href="#k" transform="matrix(1,0,0,1,273.14655278534315,69.99999999994924) translate(444.1174074074074 27.584444444444443)"/><use xlink:href="#l" transform="matrix(1,0,0,1,273.14655278534315,69.99999999994924) translate(481.92111111111114 27.584444444444443)"/><use xlink:href="#m" transform="matrix(1,0,0,1,273.14655278534315,69.99999999994924) translate(535.6766666666666 27.584444444444443)"/><use xlink:href="#n" transform="matrix(1,0,0,1,273.14655278534315,69.99999999994924) translate(551.6285185185185 27.584444444444443)"/><path d="M486.4 109.8H878.8M486.42 109.8h-1.03M878.8 109.8h1.02" stroke="#a9afb8" stroke-width="2" fill="none"/><path d="M253.15 119.16c0-4.42 3.58-8 8-8h837.7c4.42 0 8 3.58 8 8V122c0 4.42-3.58 8-8 8h-837.7c-4.42 0-8-3.58-8-8z" stroke="#000" stroke-opacity="0" stroke-width="2" fill="#fff" fill-opacity="0"/><use xlink:href="#o" transform="matrix(1,0,0,1,273.1465527853436,111.15522395684805) translate(271.9847427983539 14.917037037037037)"/><use xlink:href="#p" transform="matrix(1,0,0,1,273.1465527853436,111.15522395684805) translate(337.2914300411523 14.917037037037037)"/><use xlink:href="#q" transform="matrix(1,0,0,1,273.1465527853436,111.15522395684805) translate(397.4993518518519 14.917037037037037)"/><use xlink:href="#r" transform="matrix(1,0,0,1,273.1465527853436,111.15522395684805) translate(410.24626543209877 14.917037037037037)"/><use xlink:href="#s" transform="matrix(1,0,0,1,273.1465527853436,111.15522395684805) translate(489.1496604938271 14.917037037037037)"/><use xlink:href="#t" transform="matrix(1,0,0,1,273.1465527853436,111.15522395684805) translate(514.643487654321 14.917037037037037)"/><use xlink:href="#u" transform="matrix(1,0,0,1,273.1465527853436,111.15522395684805) translate(261.404804526749 35.952592592592595)"/><use xlink:href="#v" transform="matrix(1,0,0,1,273.1465527853436,111.15522395684805) translate(315.6216769547325 35.952592592592595)"/><use xlink:href="#w" transform="matrix(1,0,0,1,273.1465527853436,111.15522395684805) translate(408.0792901234568 35.952592592592595)"/><use xlink:href="#r" transform="matrix(1,0,0,1,273.1465527853436,111.15522395684805) translate(420.82620370370375 35.952592592592595)"/><use xlink:href="#s" transform="matrix(1,0,0,1,273.1465527853436,111.15522395684805) translate(499.7295987654321 35.952592592592595)"/><use xlink:href="#t" transform="matrix(1,0,0,1,273.1465527853436,111.15522395684805) translate(525.223425925926 35.952592592592595)"/><use xlink:href="#x" transform="matrix(1,0,0,1,273.1465527853436,111.15522395684805) translate(410.31 56.98814814814814)"/><use xlink:href="#y" transform="matrix(1,0,0,1,273.1465527853436,111.15522395684805) translate(410.31 78.0237037037037)"/><path d="M430 480c0 33.14-35.82 60-80 60s-80-26.86-80-60 35.82-60 80-60 80 26.86 80 60z" stroke="#333" fill="#fff"/><use xlink:href="#z" transform="matrix(1,0,0,1,294,444) translate(0.6249999999999929 28.799999999999997)"/><use xlink:href="#A" transform="matrix(1,0,0,1,294,444) translate(11.549999999999997 50.4)"/><path d="M308.1 840c0 33.14-35.83 60-80 60-44.2 0-80-26.86-80-60s35.8-60 80-60c44.17 0 80 26.86 80 60z" stroke="#333" fill="#fff"/><use xlink:href="#B" transform="matrix(1,0,0,1,172.0921052631562,804) translate(-0.9000000000000057 28.799999999999997)"/><use xlink:href="#C" transform="matrix(1,0,0,1,172.0921052631562,804) translate(6.7749999999999915 50.4)"/><path d="M1110 620c0 33.14-35.82 60-80 60s-80-26.86-80-60 35.82-60 80-60 80 26.86 80 60z" stroke="#333" fill="#fff"/><use xlink:href="#D" transform="matrix(1,0,0,1,974,584) translate(11.099999999999994 28.799999999999997)"/><use xlink:href="#E" transform="matrix(1,0,0,1,974,584) translate(20.049999999999997 50.4)"/><use xlink:href="#F" transform="matrix(1,0,0,1,974,584) translate(50 50.4)"/><path d="M430 630c0 33.14-35.82 60-80 60s-80-26.86-80-60 35.82-60 80-60 80 26.86 80 60z" stroke="#333" fill="#fff"/><use xlink:href="#G" transform="matrix(1,0,0,1,294,594) translate(-1.9250000000000043 28.799999999999997)"/><use xlink:href="#H" transform="matrix(1,0,0,1,294,594) translate(-8.424999999999997 50.4)"/><path d="M630 840c0 33.14-35.82 60-80 60s-80-26.86-80-60 35.82-60 80-60 80 26.86 80 60z" stroke="#333" fill="#fff"/><use xlink:href="#I" transform="matrix(1,0,0,1,494,804) translate(5.225000000000001 18)"/><use xlink:href="#J" transform="matrix(1,0,0,1,494,804) translate(44.025 39.6)"/><use xlink:href="#K" transform="matrix(1,0,0,1,494,804) translate(7.724999999999994 61.2)"/><path d="M910 920c0 33.14-35.82 60-80 60s-80-26.86-80-60 35.82-60 80-60 80 26.86 80 60z" stroke="#333" fill="#fff"/><use xlink:href="#L" transform="matrix(1,0,0,1,774,884) translate(3.5749999999999957 28.799999999999997)"/><use xlink:href="#E" transform="matrix(1,0,0,1,774,884) translate(3.9499999999999957 50.4)"/><use xlink:href="#M" transform="matrix(1,0,0,1,774,884) translate(33.9 50.4)"/><path d="M759.52 480c0 33.14-35.82 60-80 60s-80-26.86-80-60 35.82-60 80-60 80 26.86 80 60z" stroke="#333" fill="#fff"/><use xlink:href="#N" transform="matrix(1,0,0,1,623.5213070194006,444) translate(23.074999999999996 28.799999999999997)"/><use xlink:href="#O" transform="matrix(1,0,0,1,623.5213070194006,444) translate(17.924999999999997 50.4)"/><path d="M910 740c0 33.14-35.82 60-80 60s-80-26.86-80-60 35.82-60 80-60 80 26.86 80 60z" stroke="#333" fill="#fff"/><use xlink:href="#L" transform="matrix(1,0,0,1,774,704) translate(3.5749999999999957 28.799999999999997)"/><use xlink:href="#E" transform="matrix(1,0,0,1,774,704) translate(15.074999999999996 50.4)"/><use xlink:href="#P" transform="matrix(1,0,0,1,774,704) translate(45.025 50.4)"/><path d="M1190 840c0 33.14-35.82 60-80 60s-80-26.86-80-60 35.82-60 80-60 80 26.86 80 60z" stroke="#333" fill="#fff"/><use xlink:href="#Q" transform="matrix(1,0,0,1,1054,804) translate(13.574999999999996 28.799999999999997)"/><use xlink:href="#E" transform="matrix(1,0,0,1,1054,804) translate(3.249999999999993 50.4)"/><use xlink:href="#R" transform="matrix(1,0,0,1,1054,804) translate(33.199999999999996 50.4)"/><path d="M1299.75 549.75c0 10.9-8.84 19.75-19.75 19.75-10.9 0-19.75-8.84-19.75-19.75 0-10.9 8.84-19.75 19.75-19.75 10.9 0 19.75 8.84 19.75 19.75z" stroke="#c92d39" stroke-width="4" fill="#fff"/><path d="M1280 569.5v50.3c0 2.76 1.2 6.9 2.67 9.22L1320 688m-40-63.2l-40 63.2m0-98.75h80" stroke="#c92d39" stroke-width="4" fill="none"/><path d="M1240 535c0-2.76 2.24-5 5-5h70c2.76 0 5 2.24 5 5v170c0 2.76-2.24 5-5 5h-70c-2.76 0-5-2.24-5-5z" fill="none"/><use xlink:href="#S" transform="matrix(1,0,0,1,1160,688) translate(80.5679012345679 14.888888888888888)"/><path d="M442 480.5h-11v-1h11m140.64 1h-13.8v-1h13.8M431 480.5h-.52l.02-.5v-.5h.5M597.4 480l-14.26 4.64v-9.28z" fill="#333"/><path d="M599.02 480l-16.38 5.32v-10.64m1 9.27L595.8 480l-12.16-3.95" fill="#333"/><use xlink:href="#T" transform="matrix(1,0,0,1,441.9960526316052,469.2) translate(0.005000000000002558 14.4)"/><path d="M319.94 840.5H309.1v-1h10.84m133.18 1h-12.38v-1h12.38M309.1 840.5h-.52v-1h.52M467.88 840l-14.26 4.64v-9.28z" fill="#333"/><path d="M469.5 840l-16.38 5.32v-10.64m1 9.27l12.14-3.95-12.14-3.95" fill="#333"/><use xlink:href="#U" transform="matrix(1,0,0,1,319.94210526317795,829.2) translate(0.005000000000002558 14.4)"/><path d="M690.5 828.03l-.42 3.2-1.24 3-2 2.6-2.6 2-3 1.25-3.2.42H631v-1h46.97l3-.4 2.77-1.14 2.4-1.83 1.82-2.4 1.14-2.75.4-3v-48.14h1m42.62-39.34h-31.1l-3 .4-2.76 1.14-2.4 1.83-1.82 2.4-1.14 2.75-.4 3v6.22h-1v-6.27l.42-3.2 1.24-3 2-2.6 2.6-2 3-1.25 3.2-.42h31.16M631 840.5h-.52l.02-.5v-.5h.5M747.88 740l-14.26 4.64v-9.28z" fill="#333"/><path d="M749.5 740l-16.38 5.32v-10.64m1 9.27l12.14-3.95-12.14-3.95" fill="#333"/><use xlink:href="#T" transform="matrix(1,0,0,1,626.575,758.2422037112258) translate(0.005000000000002558 14.4)"/><path d="M690.5 907.97l.4 3 1.14 2.77 1.83 2.4 2.4 1.82 2.75 1.14 3 .4h31.1v1h-31.15l-3.2-.42-3-1.24-2.6-2-2-2.6-1.25-3-.42-3.2V890.8h1m-9.26-50.88l3 1.24 2.6 2 2 2.6 1.24 3 .42 3.2v17.24h-1v-17.17l-.4-3-1.14-2.77-1.83-2.4-2.4-1.82-2.75-1.14-3-.4H631v-1h47.03M631 840.5h-.52l.02-.5v-.5h.5M747.88 920l-14.26 4.64v-9.28z" fill="#333"/><path d="M749.5 920l-16.38 5.32v-10.64m1 9.27l12.14-3.95-12.14-3.95" fill="#333"/><g><use xlink:href="#T" transform="matrix(1,0,0,1,626.575,869.2) translate(0.005000000000002558 14.4)"/></g><path d="M930.5 728.03l-.42 3.2-1.24 3-2 2.6-2.6 2-3 1.25-3.2.42H911v-1h6.97l3-.4 2.77-1.14 2.4-1.83 1.82-2.4 1.14-2.75.4-3v-38.5h1m2.8-69.02l-2 .84-.8 1.92v47.3h-1v-47.5l1.03-2.5 2.4-.98M911 740.5h-.52l.02-.5v-.5h.5M947.88 620l-14.26 4.64v-9.28z" fill="#333"/><path d="M949.5 620l-16.38 5.32v-10.64m1 9.27l12.14-3.95-12.14-3.95" fill="#333"/><g><use xlink:href="#V" transform="matrix(1,0,0,1,877.0567901234567,670.5333333333333) translate(0.005000000000002558 12.622222222222224)"/></g><path d="M970.5 908.03l-.42 3.2-1.24 3-2 2.6-2.6 2-3 1.25-3.2.42H911v-1h46.97l3-.4 2.77-1.14 2.4-1.83 1.82-2.4 1.14-2.75.4-3V890.8h1m42.62-50.3h-31.1l-3 .4-2.76 1.14-2.4 1.83-1.82 2.4-1.14 2.75-.4 3v17.18h-1v-17.23l.42-3.2 1.24-3 2-2.6 2.6-2 3-1.25 3.2-.42h31.16M911 920.5h-.52l.02-.5v-.5h.5M1027.88 840l-14.26 4.64v-9.28z" fill="#333"/><path d="M1029.5 840l-16.38 5.32v-10.64m1 9.27l12.14-3.95-12.14-3.95" fill="#333"/><g><use xlink:href="#U" transform="matrix(1,0,0,1,909.6,869.2) translate(0.005000000000002558 14.4)"/></g><path d="M430 340c0 33.14-35.82 60-80 60s-80-26.86-80-60 35.82-60 80-60 80 26.86 80 60z" stroke="#333" fill="#fff"/><g><use xlink:href="#W" transform="matrix(1,0,0,1,294,304) translate(9.25 18)"/><use xlink:href="#X" transform="matrix(1,0,0,1,294,304) translate(-20.150000000000006 39.6)"/><use xlink:href="#Y" transform="matrix(1,0,0,1,294,304) translate(3.4499999999999957 61.2)"/><use xlink:href="#O" transform="matrix(1,0,0,1,294,304) translate(32.4 61.2)"/></g><path d="M1110 380c0 33.14-35.82 60-80 60s-80-26.86-80-60 35.82-60 80-60 80 26.86 80 60z" stroke="#333" fill="#fff"/><g><use xlink:href="#Z" transform="matrix(1,0,0,1,974,344) translate(9.124999999999993 28.799999999999997)"/><use xlink:href="#O" transform="matrix(1,0,0,1,974,344) translate(17.924999999999997 50.4)"/></g><path d="M36.3 696.93H22c-6.63 0-12 5.37-12 12V828c0 6.63 5.37 12 12 12h123.6" stroke="#0c7cba" stroke-width="4" fill="none"/><path d="M38.3 696.93l3 1.9v.1h-5.04v-4h3.32M147.6 840v.4l.06 1.6h-2.12v-4h2.1" fill="#0c7cba"/><path d="M80 536V359.8c0-6.6 5.37-12 12-12h176.2" stroke="#0c7cba" stroke-width="4" fill="none"/><path d="M82 538.24l-1.9-.24-1.34.03-.76.14v-2.22h4M269.9 346.14l.48 2.86.2.8h-2.44v-4h1.74" fill="#0c7cba"/><path d="M84 618.88h79.75c6.63 0 12-5.37 12-12V492c0-6.63 5.37-12 12-12h79.75M84.05 618.88H79" stroke="#0c7cba" stroke-width="4" fill="none"/><path d="M269.5 480v.4l.07 1.6h-2.12v-4h2.1" fill="#0c7cba"/><path d="M84 618.88h86.2c3.06 0 5.55 2.5 5.55 5.56 0 3.07 2.5 5.56 5.56 5.56h86.2M84.05 618.88H79" stroke="#0c7cba" stroke-width="4" fill="none"/><path d="M269.5 630v.4l.07 1.6h-2.12v-4h2.1" fill="#0c7cba"/><path d="M1280 526V381.08c0-6.63-5.37-12-12-12h-156.83" stroke="#c92d39" stroke-width="4" fill="none"/><path d="M1282 528.24l-1.9-.24-1.34.03-.76.14v-2.22h4M1111.22 371.08h-1.6V371l-.66-2.85-.32-1.07h2.58M1236.3 688.93h-4.17l-2.72.36-2.38.98-2.08 1.6-1.6 2.07-.98 2.4-.36 2.7v339.08l-.46 3.5-1.4 3.37-2.23 2.9-2.9 2.25-3.36 1.4-3.5.45H561.86l-3.5-.46-3.37-1.4-2.9-2.23-2.25-2.9-1.4-3.36-.45-3.5V902.5h4v135.37l.36 2.72 1 2.38 1.58 2.08 2.08 1.6 2.4.98 2.7.36h645.75l2.72-.36 2.38-1 2.08-1.58 1.6-2.08.98-2.4.36-2.7V698.8l.46-3.5 1.4-3.37 2.23-2.9 2.9-2.25 3.36-1.4 3.5-.45h4.45" fill="#c92d39"/><path d="M1238.3 686.93l3 1.9v.1h-5.04v-4h3.32M550 900.5h.9l1.1-.05v2.1h-4v-2.1" fill="#c92d39"/><defs><path fill="#333" d="M51-77c-1 38 59 57 67 15l29-145H98l7-41h101L172-74C175 7 45 32 13-37c-4-9-7-19-9-30" id="aa"/><path fill="#333" d="M18-101c0-91 52-150 145-150 68 0 111 34 111 101C274-54 221 4 128 4 59 4 18-33 18-101zm202-32c4-46-15-77-59-77-65 0-88 46-91 108-2 41 22 65 60 65 60 0 84-40 90-96" id="ab"/><path fill="#333" d="M70-104c-4 71 81 81 132 50l8-40h-60l7-37h108L246-31C216-10 181 3 130 3 60 2 18-32 18-102c-1-106 79-169 188-144 33 8 53 31 63 63l-50 14c-6-26-25-42-56-42-62 0-89 43-93 107" id="ac"/><g id="a"><use transform="matrix(0.06172839506172839,0,0,0.06172839506172839,0,0)" xlink:href="#aa"/><use transform="matrix(0.06172839506172839,0,0,0.06172839506172839,12.345679012345679,0)" xlink:href="#ab"/><use transform="matrix(0.06172839506172839,0,0,0.06172839506172839,29.629629629629626,0)" xlink:href="#ac"/><use transform="matrix(0.06172839506172839,0,0,0.06172839506172839,46.913580246913575,0)" xlink:href="#ab"/></g><path fill="#333" d="M250-142C247-53 197 0 108 0H6l48-248c105-5 200 3 196 106zm-49 2c1-57-42-72-103-68L66-40c84 6 135-22 135-100" id="ad"/><path fill="#333" d="M147-102L127 0H76l19-102-65-146h52l45 107 83-107h57" id="ae"/><path fill="#333" d="M175 0l-63-112-37 21L58 0H6l48-248h52L83-135l134-113h65L150-139 232 0h-57" id="af"/><g id="b"><use transform="matrix(0.06172839506172839,0,0,0.06172839506172839,0,0)" xlink:href="#ad"/><use transform="matrix(0.06172839506172839,0,0,0.06172839506172839,15.987654320987653,0)" xlink:href="#ae"/><use transform="matrix(0.06172839506172839,0,0,0.06172839506172839,30.80246913580247,0)" xlink:href="#af"/></g><path fill="#333" d="M10-72l8-43h92l-9 43H10" id="ag"/><use transform="matrix(0.06172839506172839,0,0,0.06172839506172839,0,0)" xlink:href="#ag" id="c"/><g id="d"><use transform="matrix(0.06172839506172839,0,0,0.06172839506172839,0,0)" xlink:href="#ad"/><use transform="matrix(0.06172839506172839,0,0,0.06172839506172839,15.987654320987653,0)" xlink:href="#ab"/></g><path fill="#333" d="M76-105c-23 59 45 89 88 55 12-10 18-24 22-45l30-153h51C238-143 259 4 118 4 48 4 11-39 25-112l26-136h52" id="ah"/><g id="e"><use transform="matrix(0.06172839506172839,0,0,0.06172839506172839,0,0)" xlink:href="#ae"/><use transform="matrix(0.06172839506172839,0,0,0.06172839506172839,14.814814814814813,0)" xlink:href="#ab"/><use transform="matrix(0.06172839506172839,0,0,0.06172839506172839,32.09876543209876,0)" xlink:href="#ah"/></g><path fill="#333" d="M155 0L90-199 52 0H6l48-248h62l66 201 38-201h46L218 0h-63" id="ai"/><path fill="#333" d="M253 0h-61l-6-196c-25 68-54 131-82 196H42L26-248h50l7 204 86-204h55l8 204 82-204h51" id="aj"/><path fill="#333" d="M163-185c-5-40-82-31-84 8l-47-7c13-42 43-68 99-67 46 1 82 17 82 62 0 69-80 60-96 114H70c8-55 68-59 91-98 1-4 2-7 2-12zM54 0l9-47h51l-9 47H54" id="ak"/><g id="f"><use transform="matrix(0.06172839506172839,0,0,0.06172839506172839,0,0)" xlink:href="#af"/><use transform="matrix(0.06172839506172839,0,0,0.06172839506172839,15.987654320987653,0)" xlink:href="#ai"/><use transform="matrix(0.06172839506172839,0,0,0.06172839506172839,31.975308641975307,0)" xlink:href="#ab"/><use transform="matrix(0.06172839506172839,0,0,0.06172839506172839,49.25925925925925,0)" xlink:href="#aj"/><use transform="matrix(0.06172839506172839,0,0,0.06172839506172839,70.18518518518518,0)" xlink:href="#ak"/></g><path fill="#333" d="M183 0l-10-63H79L44 0H-7l138-248h61L234 0h-51zm-14-102l-15-108c-16 38-36 73-55 108h70" id="al"/><path fill="#333" d="M258-177c0 46-32 67-71 75L235 0h-57l-41-94H76L58 0H6l48-248c89 2 204-19 204 71zm-53 3c0-46-63-30-107-33l-14 73c51-2 120 13 121-40" id="am"/><g id="g"><use transform="matrix(0.04938271604938272,0,0,0.04938271604938272,0,0)" xlink:href="#aa"/><use transform="matrix(0.04938271604938272,0,0,0.04938271604938272,9.876543209876544,0)" xlink:href="#ab"/><use transform="matrix(0.04938271604938272,0,0,0.04938271604938272,23.703703703703706,0)" xlink:href="#ac"/><use transform="matrix(0.04938271604938272,0,0,0.04938271604938272,37.53086419753087,0)" xlink:href="#al"/><use transform="matrix(0.04938271604938272,0,0,0.04938271604938272,50.320987654320994,0)" xlink:href="#ad"/><use transform="matrix(0.04938271604938272,0,0,0.04938271604938272,63.111111111111114,0)" xlink:href="#ab"/><use transform="matrix(0.04938271604938272,0,0,0.04938271604938272,76.93827160493828,0)" xlink:href="#am"/></g><path fill="#333" d="M24-248c120-7 223 5 221 122C244-46 201 0 124 0H24v-248zM76-40c74 7 117-18 117-86 0-67-45-88-117-82v168" id="an"/><path fill="#333" d="M25-224v-37h50v37H25zM25 0v-190h50V0H25" id="ao"/><path fill="#333" d="M133-34C117-15 103 5 69 4 32 3 11-16 11-54c-1-60 55-63 116-61 1-26-3-47-28-47-18 1-26 9-28 27l-52-2c7-38 36-58 82-57s74 22 75 68l1 82c-1 14 12 18 25 15v27c-30 8-71 5-69-32zm-48 3c29 0 43-24 42-57-32 0-66-3-65 30 0 17 8 27 23 27" id="ap"/><path fill="#333" d="M195-6C206 82 75 100 31 46c-4-6-6-13-8-21l49-6c3 16 16 24 34 25 40 0 42-37 40-79-11 22-30 35-61 35-53 0-70-43-70-97 0-56 18-96 73-97 30 0 46 14 59 34l2-30h47zm-90-29c32 0 41-27 41-63 0-35-9-62-40-62-32 0-39 29-40 63 0 36 9 62 39 62" id="aq"/><path fill="#333" d="M135-150c-39-12-60 13-60 57V0H25l-1-190h47c2 13-1 29 3 40 6-28 27-53 61-41v41" id="ar"/><path fill="#333" d="M220-157c-53 9-28 100-34 157h-49v-107c1-27-5-49-29-50C55-147 81-57 75 0H25l-1-190h47c2 12-1 28 3 38 10-53 101-56 108 0 13-22 24-43 59-42 82 1 51 116 57 194h-49v-107c-1-25-5-48-29-50" id="as"/><g id="h"><use transform="matrix(0.0728395061728395,0,0,0.0728395061728395,0,0)" xlink:href="#an"/><use transform="matrix(0.0728395061728395,0,0,0.0728395061728395,18.86543209876543,0)" xlink:href="#ao"/><use transform="matrix(0.0728395061728395,0,0,0.0728395061728395,26.14938271604938,0)" xlink:href="#ap"/><use transform="matrix(0.0728395061728395,0,0,0.0728395061728395,40.717283950617286,0)" xlink:href="#aq"/><use transform="matrix(0.0728395061728395,0,0,0.0728395061728395,56.66913580246913,0)" xlink:href="#ar"/><use transform="matrix(0.0728395061728395,0,0,0.0728395061728395,66.86666666666666,0)" xlink:href="#ap"/><use transform="matrix(0.0728395061728395,0,0,0.0728395061728395,81.43456790123457,0)" xlink:href="#as"/><use transform="matrix(0.0728395061728395,0,0,0.0728395061728395,104.7432098765432,0)" xlink:href="#ap"/></g><path fill="#333" d="M88-194c31-1 46 15 58 34l-1-101h50l1 261h-48c-2-10 0-23-3-31C134-8 116 4 84 4 32 4 16-41 15-95c0-56 19-97 73-99zm17 164c33 0 40-30 41-66 1-37-9-64-41-64s-38 30-39 65c0 43 13 65 39 65" id="at"/><path fill="#333" d="M185-48c-13 30-37 53-82 52C43 2 14-33 14-96s30-98 90-98c62 0 83 45 84 108H66c0 31 8 55 39 56 18 0 30-7 34-22zm-45-69c5-46-57-63-70-21-2 6-4 13-4 21h74" id="au"/><g id="i"><use transform="matrix(0.0728395061728395,0,0,0.0728395061728395,0,0)" xlink:href="#at"/><use transform="matrix(0.0728395061728395,0,0,0.0728395061728395,15.95185185185185,0)" xlink:href="#au"/></g><path fill="#333" d="M190-63c-7 42-38 67-86 67-59 0-84-38-90-98-12-110 154-137 174-36l-49 2c-2-19-15-32-35-32-30 0-35 28-38 64-6 74 65 87 74 30" id="av"/><path fill="#333" d="M137-138c1-29-70-34-71-4 15 46 118 7 119 86 1 83-164 76-172 9l43-7c4 19 20 25 44 25 33 8 57-30 24-41C81-84 22-81 20-136c-2-80 154-74 161-7" id="aw"/><path fill="#333" d="M110-194c64 0 96 36 96 99 0 64-35 99-97 99-61 0-95-36-95-99 0-62 34-99 96-99zm-1 164c35 0 45-28 45-65 0-40-10-65-43-65-34 0-45 26-45 65 0 36 10 65 43 65" id="ax"/><g id="j"><use transform="matrix(0.0728395061728395,0,0,0.0728395061728395,0,0)" xlink:href="#av"/><use transform="matrix(0.0728395061728395,0,0,0.0728395061728395,14.5679012345679,0)" xlink:href="#ap"/><use transform="matrix(0.0728395061728395,0,0,0.0728395061728395,29.1358024691358,0)" xlink:href="#aw"/><use transform="matrix(0.0728395061728395,0,0,0.0728395061728395,43.7037037037037,0)" xlink:href="#ax"/></g><g id="k"><use transform="matrix(0.0728395061728395,0,0,0.0728395061728395,0,0)" xlink:href="#at"/><use transform="matrix(0.0728395061728395,0,0,0.0728395061728395,15.95185185185185,0)" xlink:href="#au"/></g><path fill="#333" d="M85 4C-2 5 27-109 22-190h50c7 57-23 150 33 157 60-5 35-97 40-157h50l1 190h-47c-2-12 1-28-3-38-12 25-28 42-61 42" id="ay"/><g id="l"><use transform="matrix(0.0728395061728395,0,0,0.0728395061728395,0,0)" xlink:href="#ay"/><use transform="matrix(0.0728395061728395,0,0,0.0728395061728395,15.95185185185185,0)" xlink:href="#aw"/><use transform="matrix(0.0728395061728395,0,0,0.0728395061728395,30.51975308641975,0)" xlink:href="#ax"/></g><path fill="#333" d="M14-72v-43h91v43H14" id="az"/><use transform="matrix(0.0728395061728395,0,0,0.0728395061728395,0,0)" xlink:href="#az" id="m"/><path fill="#333" d="M146-102V0H94v-102L6-248h54l60 105 60-105h54" id="aA"/><path fill="#333" d="M195 0l-88-114-31 24V0H24v-248h52v113l112-113h60L142-143 257 0h-62" id="aB"/><g id="n"><use transform="matrix(0.0728395061728395,0,0,0.0728395061728395,0,0)" xlink:href="#an"/><use transform="matrix(0.0728395061728395,0,0,0.0728395061728395,18.86543209876543,0)" xlink:href="#aA"/><use transform="matrix(0.0728395061728395,0,0,0.0728395061728395,36.34691358024691,0)" xlink:href="#aB"/></g><path fill="#333" d="M67-125c0 54 23 88 75 88 28 0 53-7 68-21v-34h-60v-39h108v91C232-14 192 4 140 4 58 4 20-42 15-125 8-236 126-280 215-234c19 10 29 26 37 47l-47 15c-11-23-29-39-63-39-53 1-75 33-75 86" id="aC"/><path fill="#333" d="M25 0v-261h50V0H25" id="aD"/><path fill="#333" d="M135-194c87-1 58 113 63 194h-50c-7-57 23-157-34-157-59 0-34 97-39 157H25l-1-190h47c2 12-1 28 3 38 12-26 28-41 61-42" id="aE"/><g id="o"><use transform="matrix(0.04248971193415638,0,0,0.04248971193415638,0,0)" xlink:href="#aC"/><use transform="matrix(0.04248971193415638,0,0,0.04248971193415638,11.897119341563785,0)" xlink:href="#aD"/><use transform="matrix(0.04248971193415638,0,0,0.04248971193415638,16.14609053497942,0)" xlink:href="#ap"/><use transform="matrix(0.04248971193415638,0,0,0.04248971193415638,24.644032921810698,0)" xlink:href="#at"/><use transform="matrix(0.04248971193415638,0,0,0.04248971193415638,33.949279835390946,0)" xlink:href="#aw"/><use transform="matrix(0.04248971193415638,0,0,0.04248971193415638,42.44722222222222,0)" xlink:href="#ax"/><use transform="matrix(0.04248971193415638,0,0,0.04248971193415638,51.752469135802464,0)" xlink:href="#aE"/></g><path fill="#333" d="M199 0l-22-63H83L61 0H9l90-248h61L250 0h-51zm-33-102l-36-108c-10 38-24 72-36 108h72" id="aF"/><g id="p"><use transform="matrix(0.04248971193415638,0,0,0.04248971193415638,0,0)" xlink:href="#aF"/><use transform="matrix(0.04248971193415638,0,0,0.04248971193415638,11.004835390946502,0)" xlink:href="#as"/><use transform="matrix(0.04248971193415638,0,0,0.04248971193415638,24.601543209876542,0)" xlink:href="#au"/><use transform="matrix(0.04248971193415638,0,0,0.04248971193415638,33.099485596707815,0)" xlink:href="#aE"/><use transform="matrix(0.04248971193415638,0,0,0.04248971193415638,42.40473251028806,0)" xlink:href="#ax"/></g><path fill="#333" d="M27 80v-341h46V80H27" id="aG"/><use transform="matrix(0.04248971193415638,0,0,0.04248971193415638,0,0)" xlink:href="#aG" id="q"/><path fill="#333" d="M175 0L67-191c6 58 2 128 3 191H24v-248h59L193-55c-6-58-2-129-3-193h46V0h-61" id="aH"/><path fill="#333" d="M128 0H69L1-190h53L99-40l48-150h52" id="aI"/><path fill="#333" d="M135-194c52 0 70 43 70 98 0 56-19 99-73 100-30 1-46-15-58-35L72 0H24l1-261h50v104c11-23 29-37 60-37zM114-30c31 0 40-27 40-66 0-37-7-63-39-63s-41 28-41 65c0 36 8 64 40 64" id="aJ"/><g id="r"><use transform="matrix(0.04248971193415638,0,0,0.04248971193415638,0,0)" xlink:href="#aH"/><use transform="matrix(0.04248971193415638,0,0,0.04248971193415638,11.004835390946502,0)" xlink:href="#ax"/><use transform="matrix(0.04248971193415638,0,0,0.04248971193415638,20.31008230452675,0)" xlink:href="#aI"/><use transform="matrix(0.04248971193415638,0,0,0.04248971193415638,28.808024691358025,0)" xlink:href="#au"/><use transform="matrix(0.04248971193415638,0,0,0.04248971193415638,37.3059670781893,0)" xlink:href="#as"/><use transform="matrix(0.04248971193415638,0,0,0.04248971193415638,50.90267489711934,0)" xlink:href="#aJ"/><use transform="matrix(0.04248971193415638,0,0,0.04248971193415638,60.20792181069959,0)" xlink:href="#au"/><use transform="matrix(0.04248971193415638,0,0,0.04248971193415638,68.70586419753086,0)" xlink:href="#ar"/></g><path fill="#333" d="M128-127c34 4 56 21 59 58 7 91-148 94-172 28-4-9-6-17-7-26l51-5c1 24 16 35 40 36 23 0 39-12 38-36-1-31-31-36-65-34v-40c32 2 59-3 59-33 0-20-13-33-34-33s-33 13-35 32l-50-3c6-44 37-68 86-68 50 0 83 20 83 66 0 35-22 52-53 58" id="aK"/><path fill="#333" d="M101-251c68 0 84 54 84 127C185-50 166 4 99 4S15-52 14-124c-1-75 17-127 87-127zm-1 216c37-5 36-46 36-89s4-89-36-89c-39 0-36 45-36 89 0 43-3 85 36 89" id="aL"/><path fill="#333" d="M76-54c-1 42 2 86-19 110H24C36 42 46 24 48 0H25v-54h51" id="aM"/><g id="s"><use transform="matrix(0.04248971193415638,0,0,0.04248971193415638,0,0)" xlink:href="#aK"/><use transform="matrix(0.04248971193415638,0,0,0.04248971193415638,8.497942386831275,0)" xlink:href="#aL"/><use transform="matrix(0.04248971193415638,0,0,0.04248971193415638,16.99588477366255,0)" xlink:href="#aM"/></g><path fill="#333" d="M182-182c0 78-84 86-111 141h115V0H12c-6-101 99-100 120-180 1-22-12-31-33-32-23 0-32 14-35 34l-49-3c5-45 32-70 84-70 51 0 83 22 83 69" id="aN"/><path fill="#333" d="M23 0v-37h61v-169l-59 37v-38l62-41h46v211h57V0H23" id="aO"/><g id="t"><use transform="matrix(0.04248971193415638,0,0,0.04248971193415638,0,0)" xlink:href="#aN"/><use transform="matrix(0.04248971193415638,0,0,0.04248971193415638,8.497942386831275,0)" xlink:href="#aL"/><use transform="matrix(0.04248971193415638,0,0,0.04248971193415638,16.99588477366255,0)" xlink:href="#aN"/><use transform="matrix(0.04248971193415638,0,0,0.04248971193415638,25.493827160493822,0)" xlink:href="#aO"/></g><path fill="#333" d="M136-208V0H84v-208H4v-40h212v40h-80" id="aP"/><path fill="#333" d="M114-157C55-157 80-60 75 0H25v-261h50l-1 109c12-26 28-41 61-42 86-1 58 113 63 194h-50c-7-57 23-157-34-157" id="aQ"/><g id="u"><use transform="matrix(0.04248971193415638,0,0,0.04248971193415638,0,0)" xlink:href="#aP"/><use transform="matrix(0.04248971193415638,0,0,0.04248971193415638,9.305246913580246,0)" xlink:href="#aQ"/><use transform="matrix(0.04248971193415638,0,0,0.04248971193415638,18.610493827160493,0)" xlink:href="#ao"/><use transform="matrix(0.04248971193415638,0,0,0.04248971193415638,22.85946502057613,0)" xlink:href="#ap"/><use transform="matrix(0.04248971193415638,0,0,0.04248971193415638,31.357407407407408,0)" xlink:href="#aq"/><use transform="matrix(0.04248971193415638,0,0,0.04248971193415638,40.662654320987656,0)" xlink:href="#ax"/></g><path fill="#333" d="M169-182c-1-43-94-46-97-3 18 66 151 10 154 114 3 95-165 93-204 36-6-8-10-19-12-30l50-8c3 46 112 56 116 5-17-69-150-10-154-114-4-87 153-88 188-35 5 8 8 18 10 28" id="aR"/><g id="v"><use transform="matrix(0.04248971193415638,0,0,0.04248971193415638,0,0)" xlink:href="#aR"/><use transform="matrix(0.04248971193415638,0,0,0.04248971193415638,10.19753086419753,0)" xlink:href="#ax"/><use transform="matrix(0.04248971193415638,0,0,0.04248971193415638,19.502777777777776,0)" xlink:href="#aJ"/><use transform="matrix(0.04248971193415638,0,0,0.04248971193415638,28.808024691358025,0)" xlink:href="#ar"/><use transform="matrix(0.04248971193415638,0,0,0.04248971193415638,34.75658436213991,0)" xlink:href="#au"/><use transform="matrix(0.04248971193415638,0,0,0.04248971193415638,43.25452674897119,0)" xlink:href="#aE"/><use transform="matrix(0.04248971193415638,0,0,0.04248971193415638,52.559773662551436,0)" xlink:href="#ax"/><use transform="matrix(0.04248971193415638,0,0,0.04248971193415638,61.865020576131684,0)" xlink:href="#as"/><use transform="matrix(0.04248971193415638,0,0,0.04248971193415638,75.46172839506173,0)" xlink:href="#au"/></g><use transform="matrix(0.04248971193415638,0,0,0.04248971193415638,0,0)" xlink:href="#aG" id="w"/><path d="M212-179c-10-28-35-45-73-45-59 0-87 40-87 99 0 60 29 101 89 101 43 0 62-24 78-52l27 14C228-24 195 4 139 4 59 4 22-46 18-125c-6-104 99-153 187-111 19 9 31 26 39 46" id="aS"/><path d="M205 0l-28-72H64L36 0H1l101-248h38L239 0h-34zm-38-99l-47-123c-12 45-31 82-46 123h93" id="aT"/><path d="M30-248c118-7 216 8 213 122C240-48 200 0 122 0H30v-248zM63-27c89 8 146-16 146-99s-60-101-146-95v194" id="aU"/><path d="M185-189c-5-48-123-54-124 2 14 75 158 14 163 119 3 78-121 87-175 55-17-10-28-26-33-46l33-7c5 56 141 63 141-1 0-78-155-14-162-118-5-82 145-84 179-34 5 7 8 16 11 25" id="aV"/><path d="M127-220V0H93v-220H8v-28h204v28h-85" id="aW"/><path d="M233-177c-1 41-23 64-60 70L243 0h-38l-65-103H63V0H30v-248c88 3 205-21 203 71zM63-129c60-2 137 13 137-47 0-61-80-42-137-45v92" id="aX"/><g id="z"><use transform="matrix(0.05,0,0,0.05,0,0)" xlink:href="#aS"/><use transform="matrix(0.05,0,0,0.05,12.950000000000001,0)" xlink:href="#aT"/><use transform="matrix(0.05,0,0,0.05,24.950000000000003,0)" xlink:href="#aU"/><use transform="matrix(0.05,0,0,0.05,37.900000000000006,0)" xlink:href="#aT"/><use transform="matrix(0.05,0,0,0.05,49.900000000000006,0)" xlink:href="#aV"/><use transform="matrix(0.05,0,0,0.05,61.900000000000006,0)" xlink:href="#aW"/><use transform="matrix(0.05,0,0,0.05,72.85000000000001,0)" xlink:href="#aX"/><use transform="matrix(0.05,0,0,0.05,85.80000000000001,0)" xlink:href="#aT"/><use transform="matrix(0.05,0,0,0.05,97.80000000000001,0)" xlink:href="#aX"/></g><path d="M153-248C145-148 188 4 80 4 36 3 13-21 6-62l32-5c4 25 16 42 43 43 27 0 39-20 39-49v-147H72v-28h81" id="aY"/><path d="M140-251c81 0 123 46 123 126C263-46 219 4 140 4 59 4 17-45 17-125s42-126 123-126zm0 227c63 0 89-41 89-101s-29-99-89-99c-61 0-89 39-89 99S79-25 140-24" id="aZ"/><path d="M143 4C61 4 22-44 18-125c-5-107 100-154 193-111 17 8 29 25 37 43l-32 9c-13-25-37-40-76-40-61 0-88 39-88 99 0 61 29 100 91 101 35 0 62-11 79-27v-45h-74v-28h105v86C228-13 192 4 143 4" id="ba"/><g id="A"><use transform="matrix(0.05,0,0,0.05,0,0)" xlink:href="#aY"/><use transform="matrix(0.05,0,0,0.05,9,0)" xlink:href="#aZ"/><use transform="matrix(0.05,0,0,0.05,23,0)" xlink:href="#ba"/><use transform="matrix(0.05,0,0,0.05,37,0)" xlink:href="#aT"/><use transform="matrix(0.05,0,0,0.05,49,0)" xlink:href="#aU"/><use transform="matrix(0.05,0,0,0.05,61.95,0)" xlink:href="#aZ"/><use transform="matrix(0.05,0,0,0.05,75.95,0)" xlink:href="#aX"/></g><path d="M30 0v-248h187v28H63v79h144v27H63v87h162V0H30" id="bb"/><path d="M30-248c87 1 191-15 191 75 0 78-77 80-158 76V0H30v-248zm33 125c57 0 124 11 124-50 0-59-68-47-124-48v98" id="bc"/><path d="M190 0L58-211 59 0H30v-248h39L202-35l-2-213h31V0h-41" id="bd"/><g id="B"><use transform="matrix(0.05,0,0,0.05,0,0)" xlink:href="#aX"/><use transform="matrix(0.05,0,0,0.05,12.950000000000001,0)" xlink:href="#bb"/><use transform="matrix(0.05,0,0,0.05,24.950000000000003,0)" xlink:href="#aV"/><use transform="matrix(0.05,0,0,0.05,36.95,0)" xlink:href="#bc"/><use transform="matrix(0.05,0,0,0.05,48.95,0)" xlink:href="#aZ"/><use transform="matrix(0.05,0,0,0.05,62.95,0)" xlink:href="#bd"/><use transform="matrix(0.05,0,0,0.05,75.9,0)" xlink:href="#aU"/><use transform="matrix(0.05,0,0,0.05,88.85000000000001,0)" xlink:href="#bb"/><use transform="matrix(0.05,0,0,0.05,100.85000000000001,0)" xlink:href="#aX"/></g><path d="M232-93c-1 65-40 97-104 97C67 4 28-28 28-90v-158h33c8 89-33 224 67 224 102 0 64-133 71-224h33v155" id="be"/><g id="C"><use transform="matrix(0.05,0,0,0.05,0,0)" xlink:href="#bc"/><use transform="matrix(0.05,0,0,0.05,12,0)" xlink:href="#bb"/><use transform="matrix(0.05,0,0,0.05,24,0)" xlink:href="#aX"/><use transform="matrix(0.05,0,0,0.05,36.95,0)" xlink:href="#ba"/><use transform="matrix(0.05,0,0,0.05,50.95,0)" xlink:href="#be"/><use transform="matrix(0.05,0,0,0.05,63.900000000000006,0)" xlink:href="#bd"/><use transform="matrix(0.05,0,0,0.05,76.85000000000001,0)" xlink:href="#aW"/><use transform="matrix(0.05,0,0,0.05,86.45000000000002,0)" xlink:href="#aT"/></g><path d="M212-179c-10-28-35-45-73-45-59 0-87 40-87 99 0 60 29 101 89 101 43 0 62-24 78-52l27 14C228-24 195 4 139 4 59 4 22-46 18-125c-6-104 99-153 187-111 19 9 31 26 39 46zM142 18c19-1 33 8 33 26 0 31-30 33-64 32V58c18 2 39 4 41-13 1-15-18-13-34-13l12-32h19" id="bf"/><path d="M184-316c-4 23-8 48-36 47s-64-43-75 0H57c4-23 8-48 36-47s64 44 74 0h17zM205 0l-28-72H64L36 0H1l101-248h38L239 0h-34zm-38-99l-47-123c-12 45-31 82-46 123h93" id="bg"/><g id="D"><use transform="matrix(0.05,0,0,0.05,0,0)" xlink:href="#aX"/><use transform="matrix(0.05,0,0,0.05,12.950000000000001,0)" xlink:href="#bb"/><use transform="matrix(0.05,0,0,0.05,24.950000000000003,0)" xlink:href="#aU"/><use transform="matrix(0.05,0,0,0.05,37.900000000000006,0)" xlink:href="#be"/><use transform="matrix(0.05,0,0,0.05,50.85000000000001,0)" xlink:href="#bf"/><use transform="matrix(0.05,0,0,0.05,63.80000000000001,0)" xlink:href="#bg"/><use transform="matrix(0.05,0,0,0.05,75.80000000000001,0)" xlink:href="#aZ"/></g><g id="E"><use transform="matrix(0.05,0,0,0.05,0,0)" xlink:href="#aU"/><use transform="matrix(0.05,0,0,0.05,12.950000000000001,0)" xlink:href="#bb"/></g><path d="M137 0h-34L2-248h35l83 218 83-218h36" id="bh"/><path d="M33 0v-248h34V0H33" id="bi"/><g id="F"><use transform="matrix(0.05,0,0,0.05,0,0)" xlink:href="#bh"/><use transform="matrix(0.05,0,0,0.05,12,0)" xlink:href="#bi"/><use transform="matrix(0.05,0,0,0.05,17,0)" xlink:href="#aU"/><use transform="matrix(0.05,0,0,0.05,29.950000000000003,0)" xlink:href="#aT"/></g><path d="M30 0v-248h33v221h125V0H30" id="bj"/><g id="G"><use transform="matrix(0.05,0,0,0.05,0,0)" xlink:href="#aV"/><use transform="matrix(0.05,0,0,0.05,12,0)" xlink:href="#bb"/><use transform="matrix(0.05,0,0,0.05,24,0)" xlink:href="#bj"/><use transform="matrix(0.05,0,0,0.05,34,0)" xlink:href="#bb"/><use transform="matrix(0.05,0,0,0.05,46,0)" xlink:href="#aS"/><use transform="matrix(0.05,0,0,0.05,58.95,0)" xlink:href="#bi"/><use transform="matrix(0.05,0,0,0.05,63.95,0)" xlink:href="#aZ"/><use transform="matrix(0.05,0,0,0.05,77.95,0)" xlink:href="#bd"/><use transform="matrix(0.05,0,0,0.05,90.9,0)" xlink:href="#aT"/><use transform="matrix(0.05,0,0,0.05,102.9,0)" xlink:href="#aX"/></g><path d="M240 0l2-218c-23 76-54 145-80 218h-23L58-218 59 0H30v-248h44l77 211c21-75 51-140 76-211h43V0h-30" id="bk"/><g id="H"><use transform="matrix(0.05,0,0,0.05,0,0)" xlink:href="#bc"/><use transform="matrix(0.05,0,0,0.05,12,0)" xlink:href="#bb"/><use transform="matrix(0.05,0,0,0.05,24,0)" xlink:href="#aX"/><use transform="matrix(0.05,0,0,0.05,36.95,0)" xlink:href="#aV"/><use transform="matrix(0.05,0,0,0.05,48.95,0)" xlink:href="#aZ"/><use transform="matrix(0.05,0,0,0.05,62.95,0)" xlink:href="#bd"/><use transform="matrix(0.05,0,0,0.05,75.9,0)" xlink:href="#aT"/><use transform="matrix(0.05,0,0,0.05,87.9,0)" xlink:href="#ba"/><use transform="matrix(0.05,0,0,0.05,101.9,0)" xlink:href="#bb"/><use transform="matrix(0.05,0,0,0.05,113.9,0)" xlink:href="#bk"/></g><g id="I"><use transform="matrix(0.05,0,0,0.05,0,0)" xlink:href="#bh"/><use transform="matrix(0.05,0,0,0.05,10.65,0)" xlink:href="#aT"/><use transform="matrix(0.05,0,0,0.05,22.65,0)" xlink:href="#bj"/><use transform="matrix(0.05,0,0,0.05,32.65,0)" xlink:href="#bi"/><use transform="matrix(0.05,0,0,0.05,37.65,0)" xlink:href="#aU"/><use transform="matrix(0.05,0,0,0.05,50.6,0)" xlink:href="#aT"/><use transform="matrix(0.05,0,0,0.05,62.6,0)" xlink:href="#bf"/><use transform="matrix(0.05,0,0,0.05,75.55,0)" xlink:href="#bg"/><use transform="matrix(0.05,0,0,0.05,87.55,0)" xlink:href="#aZ"/></g><g id="J"><use transform="matrix(0.05,0,0,0.05,0,0)" xlink:href="#aU"/><use transform="matrix(0.05,0,0,0.05,12.950000000000001,0)" xlink:href="#aT"/></g><g id="K"><use transform="matrix(0.05,0,0,0.05,0,0)" xlink:href="#aX"/><use transform="matrix(0.05,0,0,0.05,12.950000000000001,0)" xlink:href="#bb"/><use transform="matrix(0.05,0,0,0.05,24.950000000000003,0)" xlink:href="#aV"/><use transform="matrix(0.05,0,0,0.05,36.95,0)" xlink:href="#bc"/><use transform="matrix(0.05,0,0,0.05,48.95,0)" xlink:href="#aZ"/><use transform="matrix(0.05,0,0,0.05,62.95,0)" xlink:href="#aV"/><use transform="matrix(0.05,0,0,0.05,74.95,0)" xlink:href="#aW"/><use transform="matrix(0.05,0,0,0.05,84.55000000000001,0)" xlink:href="#aT"/></g><g id="L"><use transform="matrix(0.05,0,0,0.05,0,0)" xlink:href="#bk"/><use transform="matrix(0.05,0,0,0.05,14.950000000000001,0)" xlink:href="#bb"/><use transform="matrix(0.05,0,0,0.05,26.950000000000003,0)" xlink:href="#bd"/><use transform="matrix(0.05,0,0,0.05,39.900000000000006,0)" xlink:href="#aV"/><use transform="matrix(0.05,0,0,0.05,51.900000000000006,0)" xlink:href="#aT"/><use transform="matrix(0.05,0,0,0.05,63.900000000000006,0)" xlink:href="#ba"/><use transform="matrix(0.05,0,0,0.05,77.9,0)" xlink:href="#bb"/><use transform="matrix(0.05,0,0,0.05,89.9,0)" xlink:href="#bk"/></g><g id="M"><use transform="matrix(0.05,0,0,0.05,0,0)" xlink:href="#aT"/><use transform="matrix(0.05,0,0,0.05,12,0)" xlink:href="#aS"/><use transform="matrix(0.05,0,0,0.05,24.950000000000003,0)" xlink:href="#bb"/><use transform="matrix(0.05,0,0,0.05,36.95,0)" xlink:href="#aX"/><use transform="matrix(0.05,0,0,0.05,49.550000000000004,0)" xlink:href="#aW"/><use transform="matrix(0.05,0,0,0.05,60.150000000000006,0)" xlink:href="#aZ"/></g><g id="N"><use transform="matrix(0.05,0,0,0.05,0,0)" xlink:href="#bi"/><use transform="matrix(0.05,0,0,0.05,5,0)" xlink:href="#bd"/><use transform="matrix(0.05,0,0,0.05,17.950000000000003,0)" xlink:href="#bi"/><use transform="matrix(0.05,0,0,0.05,22.950000000000003,0)" xlink:href="#aS"/><use transform="matrix(0.05,0,0,0.05,35.900000000000006,0)" xlink:href="#bi"/><use transform="matrix(0.05,0,0,0.05,40.900000000000006,0)" xlink:href="#aT"/><use transform="matrix(0.05,0,0,0.05,52.900000000000006,0)" xlink:href="#aX"/></g><g id="O"><use transform="matrix(0.05,0,0,0.05,0,0)" xlink:href="#bc"/><use transform="matrix(0.05,0,0,0.05,10.65,0)" xlink:href="#aT"/><use transform="matrix(0.05,0,0,0.05,22.65,0)" xlink:href="#aX"/><use transform="matrix(0.05,0,0,0.05,35.25,0)" xlink:href="#aW"/><use transform="matrix(0.05,0,0,0.05,46.2,0)" xlink:href="#bi"/><use transform="matrix(0.05,0,0,0.05,51.2,0)" xlink:href="#aU"/><use transform="matrix(0.05,0,0,0.05,64.15,0)" xlink:href="#aT"/></g><g id="P"><use transform="matrix(0.05,0,0,0.05,0,0)" xlink:href="#bb"/><use transform="matrix(0.05,0,0,0.05,12,0)" xlink:href="#aX"/><use transform="matrix(0.05,0,0,0.05,24.950000000000003,0)" xlink:href="#aX"/><use transform="matrix(0.05,0,0,0.05,37.900000000000006,0)" xlink:href="#aZ"/></g><g id="Q"><use transform="matrix(0.05,0,0,0.05,0,0)" xlink:href="#aS"/><use transform="matrix(0.05,0,0,0.05,12.950000000000001,0)" xlink:href="#aT"/><use transform="matrix(0.05,0,0,0.05,24.950000000000003,0)" xlink:href="#bj"/><use transform="matrix(0.05,0,0,0.05,34.95,0)" xlink:href="#aS"/><use transform="matrix(0.05,0,0,0.05,47.900000000000006,0)" xlink:href="#be"/><use transform="matrix(0.05,0,0,0.05,60.85,0)" xlink:href="#bj"/><use transform="matrix(0.05,0,0,0.05,70.85000000000001,0)" xlink:href="#aZ"/></g><g id="R"><use transform="matrix(0.05,0,0,0.05,0,0)" xlink:href="#bc"/><use transform="matrix(0.05,0,0,0.05,12,0)" xlink:href="#aZ"/><use transform="matrix(0.05,0,0,0.05,26,0)" xlink:href="#bd"/><use transform="matrix(0.05,0,0,0.05,38.95,0)" xlink:href="#aW"/><use transform="matrix(0.05,0,0,0.05,49.550000000000004,0)" xlink:href="#aZ"/><use transform="matrix(0.05,0,0,0.05,63.550000000000004,0)" xlink:href="#aV"/></g><path fill="#333" d="M178-136c88 48 22 151-73 140C49-3 12-15 4-64l51-9c1 50 111 53 115 3-16-63-132-20-133-112 0-93 190-91 199-10l-50 12c-4-41-93-50-97-4 7 38 59 32 89 48" id="bl"/><path fill="#333" d="M6 0l48-248h52L58 0H6" id="bm"/><path fill="#333" d="M157-208L117 0H65l40-208H25l8-40h212l-8 40h-80" id="bn"/><path fill="#333" d="M6 0l48-248h195l-8 40H98l-12 63h132l-7 40H79L66-40h150l-8 40H6" id="bo"/><path fill="#333" d="M212 0l43-212L151 0h-37L90-212C82-137 65-70 52 0H6l48-248h70l20 187 93-187h69L258 0h-46" id="bp"/><g id="S"><use transform="matrix(0.04938271604938272,0,0,0.04938271604938272,0,0)" xlink:href="#bl"/><use transform="matrix(0.04938271604938272,0,0,0.04938271604938272,11.851851851851853,0)" xlink:href="#bm"/><use transform="matrix(0.04938271604938272,0,0,0.04938271604938272,16.790123456790127,0)" xlink:href="#bl"/><use transform="matrix(0.04938271604938272,0,0,0.04938271604938272,28.64197530864198,0)" xlink:href="#bn"/><use transform="matrix(0.04938271604938272,0,0,0.04938271604938272,39.4567901234568,0)" xlink:href="#bo"/><use transform="matrix(0.04938271604938272,0,0,0.04938271604938272,51.30864197530866,0)" xlink:href="#bp"/><use transform="matrix(0.04938271604938272,0,0,0.04938271604938272,66.07407407407409,0)" xlink:href="#al"/></g><path fill="#333" d="M18-100v-36l175-74v27L42-118l151 64v27" id="bq"/><path fill="#333" d="M30 0v-248h187v28H63v79h144v27H63v87h162V0H30" id="br"/><path fill="#333" d="M195 0l-74-108L45 0H8l94-129-87-119h37l69 98 67-98h37l-84 118L233 0h-38" id="bs"/><path fill="#333" d="M212-179c-10-28-35-45-73-45-59 0-87 40-87 99 0 60 29 101 89 101 43 0 62-24 78-52l27 14C228-24 195 4 139 4 59 4 22-46 18-125c-6-104 99-153 187-111 19 9 31 26 39 46" id="bt"/><path fill="#333" d="M30 0v-248h33v221h125V0H30" id="bu"/><path fill="#333" d="M232-93c-1 65-40 97-104 97C67 4 28-28 28-90v-158h33c8 89-33 224 67 224 102 0 64-133 71-224h33v155" id="bv"/><path fill="#333" d="M30-248c118-7 216 8 213 122C240-48 200 0 122 0H30v-248zM63-27c89 8 146-16 146-99s-60-101-146-95v194" id="bw"/><path fill="#333" d="M18-27v-27l151-64-151-65v-27l175 74v36" id="bx"/><g id="T"><use transform="matrix(0.05,0,0,0.05,0,0)" xlink:href="#bq"/><use transform="matrix(0.05,0,0,0.05,10.5,0)" xlink:href="#bq"/><use transform="matrix(0.05,0,0,0.05,21,0)" xlink:href="#br"/><use transform="matrix(0.05,0,0,0.05,33,0)" xlink:href="#bs"/><use transform="matrix(0.05,0,0,0.05,45,0)" xlink:href="#bt"/><use transform="matrix(0.05,0,0,0.05,57.95,0)" xlink:href="#bu"/><use transform="matrix(0.05,0,0,0.05,67.95,0)" xlink:href="#bv"/><use transform="matrix(0.05,0,0,0.05,80.9,0)" xlink:href="#bw"/><use transform="matrix(0.05,0,0,0.05,93.85000000000001,0)" xlink:href="#br"/><use transform="matrix(0.05,0,0,0.05,105.85000000000001,0)" xlink:href="#bx"/><use transform="matrix(0.05,0,0,0.05,116.35000000000001,0)" xlink:href="#bx"/></g><path fill="#333" d="M33 0v-248h34V0H33" id="by"/><path fill="#333" d="M190 0L58-211 59 0H30v-248h39L202-35l-2-213h31V0h-41" id="bz"/><g id="U"><use transform="matrix(0.05,0,0,0.05,0,0)" xlink:href="#bq"/><use transform="matrix(0.05,0,0,0.05,10.5,0)" xlink:href="#bq"/><use transform="matrix(0.05,0,0,0.05,21,0)" xlink:href="#by"/><use transform="matrix(0.05,0,0,0.05,26,0)" xlink:href="#bz"/><use transform="matrix(0.05,0,0,0.05,38.95,0)" xlink:href="#bt"/><use transform="matrix(0.05,0,0,0.05,51.900000000000006,0)" xlink:href="#bu"/><use transform="matrix(0.05,0,0,0.05,61.900000000000006,0)" xlink:href="#bv"/><use transform="matrix(0.05,0,0,0.05,74.85000000000001,0)" xlink:href="#bw"/><use transform="matrix(0.05,0,0,0.05,87.80000000000001,0)" xlink:href="#br"/><use transform="matrix(0.05,0,0,0.05,99.80000000000001,0)" xlink:href="#bx"/><use transform="matrix(0.05,0,0,0.05,110.30000000000001,0)" xlink:href="#bx"/></g><g id="V"><use transform="matrix(0.043827160493827164,0,0,0.043827160493827164,0,0)" xlink:href="#bq"/><use transform="matrix(0.043827160493827164,0,0,0.043827160493827164,9.203703703703704,0)" xlink:href="#bq"/><use transform="matrix(0.043827160493827164,0,0,0.043827160493827164,18.40740740740741,0)" xlink:href="#by"/><use transform="matrix(0.043827160493827164,0,0,0.043827160493827164,22.790123456790123,0)" xlink:href="#bz"/><use transform="matrix(0.043827160493827164,0,0,0.043827160493827164,34.14135802469136,0)" xlink:href="#bt"/><use transform="matrix(0.043827160493827164,0,0,0.043827160493827164,45.492592592592594,0)" xlink:href="#bu"/><use transform="matrix(0.043827160493827164,0,0,0.043827160493827164,54.25802469135803,0)" xlink:href="#bv"/><use transform="matrix(0.043827160493827164,0,0,0.043827160493827164,65.60925925925926,0)" xlink:href="#bw"/><use transform="matrix(0.043827160493827164,0,0,0.043827160493827164,76.96049382716049,0)" xlink:href="#br"/><use transform="matrix(0.043827160493827164,0,0,0.043827160493827164,87.47901234567901,0)" xlink:href="#bx"/><use transform="matrix(0.043827160493827164,0,0,0.043827160493827164,96.68271604938272,0)" xlink:href="#bx"/></g><g id="W"><use transform="matrix(0.05,0,0,0.05,0,0)" xlink:href="#aV"/><use transform="matrix(0.05,0,0,0.05,12,0)" xlink:href="#aZ"/><use transform="matrix(0.05,0,0,0.05,26,0)" xlink:href="#bj"/><use transform="matrix(0.05,0,0,0.05,36,0)" xlink:href="#bi"/><use transform="matrix(0.05,0,0,0.05,41,0)" xlink:href="#aS"/><use transform="matrix(0.05,0,0,0.05,53.95,0)" xlink:href="#bi"/><use transform="matrix(0.05,0,0,0.05,58.95,0)" xlink:href="#aW"/><use transform="matrix(0.05,0,0,0.05,68.55,0)" xlink:href="#aT"/><use transform="matrix(0.05,0,0,0.05,80.55,0)" xlink:href="#aX"/></g><g id="X"><use transform="matrix(0.05,0,0,0.05,0,0)" xlink:href="#bb"/><use transform="matrix(0.05,0,0,0.05,12,0)" xlink:href="#bd"/><use transform="matrix(0.05,0,0,0.05,24.950000000000003,0)" xlink:href="#aS"/><use transform="matrix(0.05,0,0,0.05,37.900000000000006,0)" xlink:href="#bb"/><use transform="matrix(0.05,0,0,0.05,49.900000000000006,0)" xlink:href="#aX"/><use transform="matrix(0.05,0,0,0.05,62.85,0)" xlink:href="#aX"/><use transform="matrix(0.05,0,0,0.05,75.80000000000001,0)" xlink:href="#aT"/><use transform="matrix(0.05,0,0,0.05,87.80000000000001,0)" xlink:href="#bk"/><use transform="matrix(0.05,0,0,0.05,102.75,0)" xlink:href="#bb"/><use transform="matrix(0.05,0,0,0.05,114.75,0)" xlink:href="#bd"/><use transform="matrix(0.05,0,0,0.05,127.7,0)" xlink:href="#aW"/><use transform="matrix(0.05,0,0,0.05,138.3,0)" xlink:href="#aZ"/></g><g id="Y"><use transform="matrix(0.05,0,0,0.05,0,0)" xlink:href="#aU"/><use transform="matrix(0.05,0,0,0.05,12.950000000000001,0)" xlink:href="#aT"/></g><g id="Z"><use transform="matrix(0.05,0,0,0.05,0,0)" xlink:href="#aW"/><use transform="matrix(0.05,0,0,0.05,10.950000000000001,0)" xlink:href="#bb"/><use transform="matrix(0.05,0,0,0.05,22.950000000000003,0)" xlink:href="#aX"/><use transform="matrix(0.05,0,0,0.05,35.900000000000006,0)" xlink:href="#bk"/><use transform="matrix(0.05,0,0,0.05,50.85000000000001,0)" xlink:href="#bi"/><use transform="matrix(0.05,0,0,0.05,55.85,0)" xlink:href="#bd"/><use transform="matrix(0.05,0,0,0.05,68.80000000000001,0)" xlink:href="#aT"/><use transform="matrix(0.05,0,0,0.05,80.80000000000001,0)" xlink:href="#aX"/></g></defs></g></svg>